<?xml version="1.0" standalone="no"?>
<!DOCTYPE svg PUBLIC "-//W3C//DTD SVG 20010904//EN"
 "http://www.w3.org/TR/2001/REC-SVG-20010904/DTD/svg10.dtd">
<svg version="1.0" xmlns="http://www.w3.org/2000/svg"
 width="1280.000000pt" height="720.000000pt" viewBox="0 0 1280.000000 720.000000"
 preserveAspectRatio="xMidYMid meet">

<g transform="translate(0.000000,720.000000) scale(0.100000,-0.100000)"
fill="#000000" stroke="none">
<path d="M0 3600 l0 -3600 6400 0 6400 0 0 3600 0 3600 -6400 0 -6400 0 0
-3600z m6705 1846 c563 -101 1028 -421 1311 -903 107 -181 180 -374 226 -598
20 -97 23 -139 22 -350 0 -256 -9 -325 -68 -530 -85 -291 -247 -563 -467 -784
-277 -277 -587 -442 -984 -523 -96 -20 -141 -23 -345 -23 -205 0 -249 3 -345
23 -459 94 -835 323 -1119 680 -364 455 -492 1059 -347 1625 54 209 136 390
257 572 297 447 769 743 1307 819 131 19 426 14 552 -8z"/>
<path d="M5360 3795 l0 -597 238 5 c262 5 292 10 415 74 119 63 227 202 268
348 22 77 19 286 -5 355 -69 203 -202 331 -401 387 -33 10 -127 16 -282 20
l-233 6 0 -598z m532 518 c170 -59 287 -186 332 -360 20 -77 21 -249 1 -322
-36 -137 -135 -263 -249 -320 -99 -49 -175 -61 -383 -61 l-183 0 0 538 c0 296
3 542 8 546 4 5 99 6 212 3 169 -4 215 -8 262 -24z"/>
<path d="M6507 4378 c6 -7 110 -138 233 -291 l222 -277 -38 -49 c-22 -27 -130
-162 -241 -299 -112 -138 -203 -253 -203 -256 0 -3 13 -6 29 -6 26 0 46 22
182 193 84 105 186 234 227 285 l74 93 81 -103 c397 -502 367 -468 404 -468
l34 0 -34 43 c-19 23 -130 160 -246 305 l-211 263 232 287 c231 287 243 307
175 287 -13 -3 -107 -114 -226 -266 -112 -143 -207 -259 -212 -257 -7 3 -105
125 -357 446 -59 75 -68 82 -100 82 -26 0 -32 -3 -25 -12z"/>
<path d="M5390 3037 c-19 -9 -26 -22 -28 -50 -4 -50 7 -61 80 -86 74 -25 98
-45 98 -82 0 -62 -91 -89 -160 -48 l-35 21 23 -24 c19 -19 33 -23 83 -23 52 0
64 3 80 24 10 13 19 38 19 56 0 39 -29 64 -100 84 -25 7 -53 20 -62 29 -25 22
-23 67 4 86 29 21 97 20 128 0 l25 -16 -24 21 c-27 24 -91 28 -131 8z"/>
<path d="M5683 3030 c-48 -29 -66 -71 -61 -144 4 -71 25 -107 77 -132 53 -26
115 -14 159 29 31 31 36 43 40 95 3 43 -1 70 -14 97 -19 40 -66 75 -99 74 -13
-1 -10 -4 10 -10 53 -15 88 -61 93 -122 5 -67 -16 -120 -60 -147 -92 -56 -198
9 -198 122 0 83 29 127 99 149 21 6 22 7 6 8 -11 1 -34 -8 -52 -19z"/>
<path d="M5984 2900 c0 -85 2 -120 3 -77 2 42 2 112 0 155 -1 42 -3 7 -3 -78z"/>
<path d="M6214 2927 l1 -129 34 -30 c30 -27 39 -30 84 -25 41 3 55 10 74 33
21 27 23 37 21 154 l-2 125 -3 -127 -4 -127 -30 -25 c-41 -35 -97 -35 -136 -2
-27 24 -28 28 -34 153 l-6 128 1 -128z"/>
<path d="M6547 3043 l52 -4 4 -147 3 -147 2 147 2 147 53 4 c28 2 3 3 -58 3
-60 0 -86 -1 -58 -3z"/>
<path d="M6784 2900 c0 -85 2 -120 3 -77 2 42 2 112 0 155 -1 42 -3 7 -3 -78z"/>
<path d="M6933 3030 c-43 -26 -67 -74 -67 -135 0 -89 62 -157 144 -154 33 1
32 2 -11 9 -55 9 -82 25 -102 59 -23 40 -29 86 -17 129 14 54 37 80 85 97 23
8 31 14 20 15 -11 0 -34 -9 -52 -20z"/>
<path d="M7018 3043 c6 -2 18 -2 25 0 6 3 1 5 -13 5 -14 0 -19 -2 -12 -5z"/>
<path d="M7230 3032 c0 -13 4 -21 8 -18 5 3 53 -55 108 -129 54 -74 102 -135
106 -135 5 0 7 69 6 153 l-2 152 -6 -144 -5 -143 -95 128 c-132 178 -119 163
-120 136z"/>
<path d="M7085 3018 c76 -59 72 -200 -7 -248 -18 -11 -28 -20 -22 -20 21 0 66
43 80 76 21 49 17 113 -7 154 -22 35 -47 59 -63 60 -5 0 4 -10 19 -22z"/>
<path d="M7234 2875 c0 -71 1 -99 3 -62 2 37 2 96 0 130 -2 34 -3 4 -3 -68z"/>
</g>
</svg>
