<svg xmlns="http://www.w3.org/2000/svg" xmlns:xlink="http://www.w3.org/1999/xlink" width="30" zoomAndPan="magnify" viewBox="0 0 30 30.000001" height="30" preserveAspectRatio="xMidYMid meet" version="1.0">
	<defs>
		<g />
		<clipPath id="30e7d84ea0">
			<path d="M 0.484375 0 L 29.515625 0 L 29.515625 29.03125 L 0.484375 29.03125 Z M 0.484375 0 " clip-rule="nonzero" />
		</clipPath>
		<clipPath id="aa42b20e99">
			<path d="M 15 0 C 6.984375 0 0.484375 6.5 0.484375 14.515625 C 0.484375 22.53125 6.984375 29.03125 15 29.03125 C 23.015625 29.03125 29.515625 22.53125 29.515625 14.515625 C 29.515625 6.5 23.015625 0 15 0 Z M 15 0 " clip-rule="nonzero" />
		</clipPath>
	</defs>
	<g clip-path="url(#30e7d84ea0)">
		<g clip-path="url(#aa42b20e99)">
			<path fill="#567644" d="M 0.484375 0 L 29.515625 0 L 29.515625 29.03125 L 0.484375 29.03125 Z M 0.484375 0 " fill-opacity="1" fill-rule="nonzero" />
		</g>
	</g>
	<g fill="#ffffff" fill-opacity="1">
		<g transform="translate(8.249999, 15.128414)">
			<g>
				<path d="M 3.46875 -6.375 C 3.84375 -6.375 4.207031 -6.300781 4.5625 -6.15625 C 4.914062 -6.007812 5.226562 -5.800781 5.5 -5.53125 C 6.09375 -4.914062 6.390625 -4.132812 6.390625 -3.1875 C 6.390625 -2.238281 6.09375 -1.457031 5.5 -0.84375 C 5.226562 -0.570312 4.914062 -0.363281 4.5625 -0.21875 C 4.207031 -0.0703125 3.84375 0 3.46875 0 L 0.78125 0 L 0.78125 -6.375 Z M 3.4375 -0.6875 C 4.101562 -0.6875 4.644531 -0.929688 5.0625 -1.421875 C 5.46875 -1.898438 5.671875 -2.488281 5.671875 -3.1875 C 5.671875 -3.882812 5.46875 -4.472656 5.0625 -4.953125 C 4.644531 -5.441406 4.101562 -5.6875 3.4375 -5.6875 L 1.5 -5.6875 L 1.5 -0.6875 Z M 3.4375 -0.6875 " />
			</g>
		</g>
	</g>
	<g fill="#ffffff" fill-opacity="1">
		<g transform="translate(15.030244, 15.128414)">
			<g>
				<path d="M 3.390625 -3.296875 L 5.921875 0 L 5.015625 0 L 2.9375 -2.734375 L 0.890625 0 L -0.03125 0 L 2.515625 -3.296875 L 0.140625 -6.375 L 1.0625 -6.375 L 2.9375 -3.875 L 4.84375 -6.375 L 5.75 -6.375 Z M 3.390625 -3.296875 " />
			</g>
		</g>
	</g>
	<g fill="#ffffff" fill-opacity="1">
		<g transform="translate(20.935091, 15.128414)">
			<g />
		</g>
	</g>
	<g fill="#ffffff" fill-opacity="1">
		<g transform="translate(7.495929, 18.873452)">
			<g>
				<path d="M 0.46875 -1.71875 C 0.4375 -1.6875 0.410156 -1.648438 0.390625 -1.609375 C 0.378906 -1.566406 0.375 -1.519531 0.375 -1.46875 C 0.375 -1.425781 0.394531 -1.382812 0.4375 -1.34375 C 0.476562 -1.3125 0.53125 -1.28125 0.59375 -1.25 C 0.664062 -1.21875 0.742188 -1.191406 0.828125 -1.171875 C 0.910156 -1.148438 0.992188 -1.128906 1.078125 -1.109375 C 1.160156 -1.085938 1.242188 -1.0625 1.328125 -1.03125 C 1.410156 -1.007812 1.488281 -0.976562 1.5625 -0.9375 C 1.707031 -0.84375 1.78125 -0.71875 1.78125 -0.5625 C 1.78125 -0.375 1.707031 -0.226562 1.5625 -0.125 C 1.414062 -0.0195312 1.21875 0.03125 0.96875 0.03125 C 0.6875 0.03125 0.472656 -0.03125 0.328125 -0.15625 C 0.191406 -0.257812 0.113281 -0.410156 0.09375 -0.609375 L 0.34375 -0.609375 C 0.34375 -0.460938 0.40625 -0.351562 0.53125 -0.28125 C 0.644531 -0.21875 0.796875 -0.1875 0.984375 -0.1875 C 1.359375 -0.1875 1.546875 -0.304688 1.546875 -0.546875 C 1.546875 -0.628906 1.507812 -0.691406 1.4375 -0.734375 C 1.375 -0.785156 1.289062 -0.828125 1.1875 -0.859375 C 1.082031 -0.890625 0.96875 -0.914062 0.84375 -0.9375 C 0.726562 -0.96875 0.617188 -1.003906 0.515625 -1.046875 C 0.410156 -1.085938 0.320312 -1.140625 0.25 -1.203125 C 0.1875 -1.273438 0.15625 -1.367188 0.15625 -1.484375 C 0.15625 -1.648438 0.21875 -1.785156 0.34375 -1.890625 C 0.46875 -1.992188 0.660156 -2.046875 0.921875 -2.046875 C 1.179688 -2.046875 1.378906 -1.988281 1.515625 -1.875 C 1.648438 -1.769531 1.71875 -1.632812 1.71875 -1.46875 L 1.484375 -1.46875 C 1.460938 -1.632812 1.351562 -1.75 1.15625 -1.8125 C 1.09375 -1.832031 1.007812 -1.84375 0.90625 -1.84375 C 0.800781 -1.84375 0.710938 -1.828125 0.640625 -1.796875 C 0.566406 -1.773438 0.507812 -1.75 0.46875 -1.71875 Z M 0.46875 -1.71875 " />
			</g>
		</g>
	</g>
	<g fill="#ffffff" fill-opacity="1">
		<g transform="translate(9.382647, 18.873452)">
			<g>
				<path d="M 1.140625 -2.046875 C 1.453125 -2.046875 1.703125 -1.945312 1.890625 -1.75 C 2.078125 -1.550781 2.171875 -1.304688 2.171875 -1.015625 C 2.171875 -0.722656 2.078125 -0.476562 1.890625 -0.28125 C 1.703125 -0.0703125 1.453125 0.03125 1.140625 0.03125 C 0.835938 0.03125 0.59375 -0.0703125 0.40625 -0.28125 C 0.21875 -0.476562 0.125 -0.722656 0.125 -1.015625 C 0.125 -1.304688 0.21875 -1.550781 0.40625 -1.75 C 0.59375 -1.945312 0.835938 -2.046875 1.140625 -2.046875 Z M 1.140625 -0.203125 C 1.390625 -0.203125 1.585938 -0.28125 1.734375 -0.4375 C 1.878906 -0.582031 1.953125 -0.773438 1.953125 -1.015625 C 1.953125 -1.242188 1.878906 -1.4375 1.734375 -1.59375 C 1.585938 -1.75 1.390625 -1.828125 1.140625 -1.828125 C 0.898438 -1.828125 0.707031 -1.75 0.5625 -1.59375 C 0.414062 -1.4375 0.34375 -1.242188 0.34375 -1.015625 C 0.34375 -0.773438 0.414062 -0.582031 0.5625 -0.4375 C 0.707031 -0.28125 0.898438 -0.203125 1.140625 -0.203125 Z M 1.140625 -0.203125 " />
			</g>
		</g>
	</g>
	<g fill="#ffffff" fill-opacity="1">
		<g transform="translate(11.683524, 18.873452)">
			<g>
				<path d="M 0.484375 -2.03125 L 0.484375 -0.21875 L 1.578125 -0.21875 L 1.578125 0 L 0.25 0 L 0.25 -2.03125 Z M 0.484375 -2.03125 " />
			</g>
		</g>
	</g>
	<g fill="#ffffff" fill-opacity="1">
		<g transform="translate(13.31868, 18.873452)">
			<g>
				<path d="M 1.953125 -2.03125 L 1.953125 -0.875 C 1.953125 -0.601562 1.867188 -0.382812 1.703125 -0.21875 C 1.546875 -0.0507812 1.335938 0.03125 1.078125 0.03125 C 0.828125 0.03125 0.617188 -0.0507812 0.453125 -0.21875 C 0.296875 -0.382812 0.21875 -0.601562 0.21875 -0.875 L 0.21875 -2.03125 L 0.453125 -2.03125 L 0.453125 -0.859375 C 0.453125 -0.640625 0.519531 -0.472656 0.65625 -0.359375 C 0.757812 -0.253906 0.898438 -0.203125 1.078125 -0.203125 C 1.253906 -0.203125 1.398438 -0.253906 1.515625 -0.359375 C 1.648438 -0.472656 1.71875 -0.640625 1.71875 -0.859375 L 1.71875 -2.03125 Z M 1.953125 -2.03125 " />
			</g>
		</g>
	</g>
	<g fill="#ffffff" fill-opacity="1">
		<g transform="translate(15.493776, 18.873452)">
			<g>
				<path d="M 1.6875 -1.8125 L 0.984375 -1.8125 L 0.984375 0 L 0.75 0 L 0.75 -1.8125 L 0.046875 -1.8125 L 0.046875 -2.03125 L 1.6875 -2.03125 Z M 1.6875 -1.8125 " />
			</g>
		</g>
	</g>
	<g fill="#ffffff" fill-opacity="1">
		<g transform="translate(17.227103, 18.873452)">
			<g>
				<path d="M 0.484375 0 L 0.25 0 L 0.25 -2.03125 L 0.484375 -2.03125 Z M 0.484375 0 " />
			</g>
		</g>
	</g>
	<g fill="#ffffff" fill-opacity="1">
		<g transform="translate(17.95418, 18.873452)">
			<g>
				<path d="M 1.140625 -2.046875 C 1.453125 -2.046875 1.703125 -1.945312 1.890625 -1.75 C 2.078125 -1.550781 2.171875 -1.304688 2.171875 -1.015625 C 2.171875 -0.722656 2.078125 -0.476562 1.890625 -0.28125 C 1.703125 -0.0703125 1.453125 0.03125 1.140625 0.03125 C 0.835938 0.03125 0.59375 -0.0703125 0.40625 -0.28125 C 0.21875 -0.476562 0.125 -0.722656 0.125 -1.015625 C 0.125 -1.304688 0.21875 -1.550781 0.40625 -1.75 C 0.59375 -1.945312 0.835938 -2.046875 1.140625 -2.046875 Z M 1.140625 -0.203125 C 1.390625 -0.203125 1.585938 -0.28125 1.734375 -0.4375 C 1.878906 -0.582031 1.953125 -0.773438 1.953125 -1.015625 C 1.953125 -1.242188 1.878906 -1.4375 1.734375 -1.59375 C 1.585938 -1.75 1.390625 -1.828125 1.140625 -1.828125 C 0.898438 -1.828125 0.707031 -1.75 0.5625 -1.59375 C 0.414062 -1.4375 0.34375 -1.242188 0.34375 -1.015625 C 0.34375 -0.773438 0.414062 -0.582031 0.5625 -0.4375 C 0.707031 -0.28125 0.898438 -0.203125 1.140625 -0.203125 Z M 1.140625 -0.203125 " />
			</g>
		</g>
	</g>
	<g fill="#ffffff" fill-opacity="1">
		<g transform="translate(20.255056, 18.873452)">
			<g>
				<path d="M 2 -2.03125 L 2 0 L 1.734375 0 L 0.484375 -1.71875 L 0.484375 0 L 0.25 0 L 0.25 -2.03125 L 0.515625 -2.03125 L 1.765625 -0.328125 L 1.765625 -2.03125 Z M 2 -2.03125 " />
			</g>
		</g>
	</g>
</svg>
