<?xml version="1.0" standalone="no"?>
<!DOCTYPE svg PUBLIC "-//W3C//DTD SVG 20010904//EN"
 "http://www.w3.org/TR/2001/REC-SVG-20010904/DTD/svg10.dtd">
<svg version="1.0" xmlns="http://www.w3.org/2000/svg"
 width="1280.000000pt" height="720.000000pt" viewBox="0 0 1280.000000 720.000000"
 preserveAspectRatio="xMidYMid meet">

<g transform="translate(0.000000,720.000000) scale(0.100000,-0.100000)"
fill="#000000" stroke="none">
<path d="M6127 5444 c-503 -79 -950 -351 -1240 -757 -235 -328 -347 -683 -347
-1094 1 -301 53 -536 179 -799 280 -584 833 -976 1476 -1049 195 -22 340 -18
535 16 491 85 941 379 1222 800 375 561 419 1269 117 1872 -274 547 -791 920
-1401 1012 -122 19 -420 18 -541 -1z m-247 -1075 c166 -46 290 -146 359 -292
52 -109 66 -172 65 -292 -1 -112 -18 -184 -67 -285 -43 -88 -150 -194 -238
-237 -109 -54 -168 -63 -416 -63 l-223 0 0 595 0 595 223 0 c194 0 232 -3 297
-21z m899 -239 c112 -143 208 -260 212 -260 4 0 58 64 120 143 325 410 295
377 341 377 l40 0 -34 -42 c-39 -49 -405 -506 -421 -525 -9 -12 125 -185 411
-534 34 -41 62 -79 62 -82 0 -4 -17 -7 -37 -7 -32 1 -43 7 -68 40 -16 21 -115
147 -220 279 l-190 241 -25 -28 c-14 -15 -115 -141 -225 -280 -199 -251 -200
-252 -238 -252 -27 0 -36 4 -31 12 12 19 424 530 452 560 19 21 23 32 16 46
-5 10 -107 140 -226 289 -120 149 -218 273 -218 277 0 3 17 6 38 6 37 -1 40
-4 241 -260z m-1253 -1095 c36 -24 19 -38 -19 -15 -42 26 -80 25 -113 -3 -41
-35 -28 -70 33 -92 27 -10 61 -22 76 -28 41 -15 64 -66 48 -105 -18 -43 -56
-58 -132 -54 -30 2 -82 39 -73 53 3 5 17 1 30 -10 14 -11 38 -22 53 -26 37 -8
101 18 102 42 4 61 -9 76 -90 99 -63 19 -91 44 -91 82 0 28 28 63 60 75 24 10
89 0 116 -18z m291 10 c58 -23 88 -75 88 -150 0 -52 -4 -67 -28 -98 -36 -48
-59 -59 -120 -59 -114 0 -182 124 -128 236 38 78 107 104 188 71z m1246 1 c87
-37 119 -145 71 -237 -52 -102 -216 -93 -259 14 -57 142 58 279 188 223z
m-1071 -138 l3 -143 78 -3 c108 -4 97 -22 -13 -22 l-90 0 0 155 c0 199 18 210
22 13z m230 28 c3 -98 6 -119 24 -143 44 -59 133 -52 160 13 9 21 14 72 14
139 0 63 4 105 10 105 14 0 13 -208 -1 -248 -14 -40 -51 -64 -103 -64 -95 -2
-119 35 -124 193 -3 78 -1 119 6 119 6 0 12 -44 14 -114z m493 104 c-3 -5 -26
-10 -50 -10 l-44 0 -3 -142 c-2 -87 -7 -143 -13 -143 -6 0 -11 56 -13 143 l-3
142 -44 0 c-24 0 -47 5 -50 10 -4 6 35 10 110 10 75 0 114 -4 110 -10z m75
-145 c0 -97 -4 -155 -10 -155 -6 0 -10 58 -10 155 0 97 4 155 10 155 6 0 10
-58 10 -155z m550 24 c52 -72 97 -132 100 -134 3 -2 4 57 2 131 -2 89 0 134 7
134 7 0 11 -53 11 -155 0 -85 -4 -155 -9 -155 -5 0 -17 12 -27 28 -10 15 -54
76 -98 136 l-81 109 -3 -136 c-4 -193 -22 -178 -22 18 0 117 3 155 13 155 6 0
55 -59 107 -131z"/>
<path d="M5422 3794 l3 -536 192 2 c212 1 268 10 362 61 154 81 245 235 257
434 11 172 -41 321 -151 431 -117 118 -203 144 -478 144 l-187 0 2 -536z"/>
<path d="M5699 3025 c-41 -22 -63 -64 -63 -120 -1 -74 18 -110 71 -136 39 -19
50 -20 83 -10 50 15 87 60 95 116 17 113 -92 201 -186 150z"/>
<path d="M6942 3020 c-93 -58 -77 -222 25 -258 36 -14 46 -14 79 -1 56 21 84
68 84 141 0 52 -4 62 -33 94 -42 46 -104 56 -155 24z"/>
</g>
</svg>
